<svg width="695" height="455" viewBox="0 0 695 455" fill="none" xmlns="http://www.w3.org/2000/svg">
<path d="M0 30V0H249L277.5 30H605V384H0V30Z" fill="#D8CEE4"/>
<g filter="url(#filter0_d_180_1301)">
<rect x="21" y="47" width="605" height="354" fill="#130B1D"/>
</g>
<g filter="url(#filter1_d_180_1301)">
<mask id="path-3-inside-1_180_1301" fill="white">
<path d="M47 61H687V447H47V61Z"/>
</mask>
<path d="M47 61H687V447H47V61Z" fill="#A59EAF"/>
<path d="M47 61V21H43V61H47ZM687 61H691V21H687V61ZM687 447V451H691V447H687ZM47 447H43V451H47V447ZM47 101H687V21H47V101ZM683 61V447H691V61H683ZM687 443H47V451H687V443ZM51 447V61H43V447H51Z" fill="#D8CEE4" mask="url(#path-3-inside-1_180_1301)"/>
</g>
<rect x="51" y="65" width="632" height="48" fill="#361F52"/>
<line x1="47" y1="445" x2="687" y2="445" stroke="#7C7289" stroke-width="4"/>
<line x1="685" y1="443" x2="685" y2="61" stroke="#7C7289" stroke-width="4"/>
<path d="M51 443H47V447L51 443Z" fill="#D8CEE4"/>
<path d="M687 61H683V65L687 61Z" fill="#D8CEE4"/>
<rect x="73" y="137" width="588" height="278" fill="#07040B" stroke="#D8CEE4" stroke-width="4"/>
<line x1="71" y1="137" x2="663" y2="137" stroke="#7C7289" stroke-width="4"/>
<line x1="73" y1="417" x2="73" y2="135" stroke="#7C7289" stroke-width="4"/>
<path d="M659 139H663V135L659 139Z" fill="#D8CEE4"/>
<path d="M71 417H75V413L71 417Z" fill="#D8CEE4"/>
<path d="M21.7273 22.43V21.324C21.7273 20.7453 21.914 20.2833 22.2873 19.938C22.6607 19.5927 23.1507 19.42 23.7573 19.42C24.14 19.42 24.4573 19.4853 24.7093 19.616C24.9613 19.7467 25.1713 19.9053 25.3393 20.092C25.5167 20.2787 25.6707 20.47 25.8013 20.666C25.9413 20.8527 26.0813 21.0113 26.2213 21.142C26.3613 21.2633 26.5247 21.324 26.7113 21.324C26.8887 21.324 27.0193 21.2727 27.1033 21.17C27.1967 21.058 27.2433 20.9087 27.2433 20.722V19.7H28.7273V20.806C28.7273 21.3753 28.5407 21.8373 28.1673 22.192C27.8033 22.5373 27.3133 22.71 26.6973 22.71C26.3147 22.71 25.9973 22.6447 25.7453 22.514C25.4933 22.3833 25.2787 22.2247 25.1013 22.038C24.9333 21.8513 24.7793 21.6647 24.6393 21.478C24.5087 21.282 24.3733 21.1233 24.2333 21.002C24.0933 20.8713 23.93 20.806 23.7433 20.806C23.5753 20.806 23.4447 20.8573 23.3513 20.96C23.258 21.0627 23.2113 21.212 23.2113 21.408V22.43H21.7273ZM30.2619 27.54L35.1619 14.38H36.9819L32.0819 27.54H30.2619ZM38.8944 26V15.78H42.2964C42.9777 15.78 43.5704 15.9107 44.0744 16.172C44.5877 16.4333 44.9844 16.802 45.2644 17.278C45.5444 17.7447 45.6844 18.2953 45.6844 18.93C45.6844 19.5553 45.5397 20.106 45.2504 20.582C44.9704 21.058 44.5784 21.4267 44.0744 21.688C43.5704 21.9493 42.9777 22.08 42.2964 22.08H40.6444V26H38.8944ZM40.6444 20.498H42.2964C42.7817 20.498 43.1691 20.358 43.4584 20.078C43.7571 19.7887 43.9064 19.406 43.9064 18.93C43.9064 18.4447 43.7571 18.062 43.4584 17.782C43.1691 17.502 42.7817 17.362 42.2964 17.362H40.6444V20.498ZM47.5269 26V18.3H49.1789V19.77H49.6129L49.0949 20.666C49.0949 19.8353 49.2816 19.21 49.6549 18.79C50.0283 18.37 50.5789 18.16 51.3069 18.16C52.1376 18.16 52.7909 18.4167 53.2669 18.93C53.7429 19.4433 53.9809 20.1527 53.9809 21.058V21.618H52.1469V21.184C52.1469 20.6893 52.0163 20.3067 51.7549 20.036C51.5029 19.7653 51.1529 19.63 50.7049 19.63C50.2476 19.63 49.8929 19.7653 49.6409 20.036C49.3983 20.3067 49.2769 20.6893 49.2769 21.184V26H47.5269ZM58.8055 26.126C58.1521 26.126 57.5828 26.0047 57.0975 25.762C56.6215 25.51 56.2481 25.16 55.9775 24.712C55.7161 24.2547 55.5855 23.718 55.5855 23.102V21.198C55.5855 20.582 55.7161 20.05 55.9775 19.602C56.2481 19.1447 56.6215 18.7947 57.0975 18.552C57.5828 18.3 58.1521 18.174 58.8055 18.174C59.4681 18.174 60.0375 18.3 60.5135 18.552C60.9895 18.7947 61.3581 19.1447 61.6195 19.602C61.8901 20.05 62.0255 20.5773 62.0255 21.184V23.102C62.0255 23.718 61.8901 24.2547 61.6195 24.712C61.3581 25.16 60.9895 25.51 60.5135 25.762C60.0375 26.0047 59.4681 26.126 58.8055 26.126ZM58.8055 24.6C59.2721 24.6 59.6315 24.474 59.8835 24.222C60.1448 23.9607 60.2755 23.5873 60.2755 23.102V21.198C60.2755 20.7033 60.1448 20.33 59.8835 20.078C59.6315 19.826 59.2721 19.7 58.8055 19.7C58.3481 19.7 57.9888 19.826 57.7275 20.078C57.4661 20.33 57.3355 20.7033 57.3355 21.198V23.102C57.3355 23.5873 57.4661 23.9607 57.7275 24.222C57.9888 24.474 58.3481 24.6 58.8055 24.6ZM64.148 28.52V26.896H66.206C66.6727 26.896 67.032 26.77 67.284 26.518C67.536 26.266 67.662 25.9113 67.662 25.454V19.924H64.568V18.3H69.412V25.496C69.412 26.4293 69.132 27.1667 68.572 27.708C68.012 28.2493 67.256 28.52 66.304 28.52H64.148ZM68.474 17.012C68.1193 17.012 67.8393 16.9233 67.634 16.746C67.4287 16.5593 67.326 16.312 67.326 16.004C67.326 15.696 67.4287 15.4533 67.634 15.276C67.8393 15.0893 68.1193 14.996 68.474 14.996C68.8287 14.996 69.1087 15.0893 69.314 15.276C69.5193 15.4533 69.622 15.696 69.622 16.004C69.622 16.312 69.5193 16.5593 69.314 16.746C69.1087 16.9233 68.8287 17.012 68.474 17.012ZM75.6085 26.14C74.9552 26.14 74.3859 26.014 73.9005 25.762C73.4152 25.51 73.0372 25.16 72.7665 24.712C72.5052 24.2547 72.3745 23.7227 72.3745 23.116V21.184C72.3745 20.5773 72.5052 20.05 72.7665 19.602C73.0372 19.1447 73.4152 18.79 73.9005 18.538C74.3859 18.286 74.9552 18.16 75.6085 18.16C76.2525 18.16 76.8125 18.286 77.2885 18.538C77.7739 18.79 78.1472 19.1447 78.4085 19.602C78.6792 20.05 78.8145 20.5773 78.8145 21.184V22.57H74.0685V23.116C74.0685 23.6573 74.1992 24.068 74.4605 24.348C74.7219 24.6187 75.1092 24.754 75.6225 24.754C76.0145 24.754 76.3319 24.6887 76.5745 24.558C76.8172 24.418 76.9712 24.2173 77.0365 23.956H78.7585C78.6279 24.6187 78.2732 25.1507 77.6945 25.552C77.1252 25.944 76.4299 26.14 75.6085 26.14ZM77.1205 21.59V21.17C77.1205 20.638 76.9945 20.232 76.7425 19.952C76.4905 19.6627 76.1125 19.518 75.6085 19.518C75.1045 19.518 74.7219 19.6627 74.4605 19.952C74.1992 20.2413 74.0685 20.652 74.0685 21.184V21.478L77.2465 21.45L77.1205 21.59ZM84.0311 26.14C83.3777 26.14 82.8037 26.0187 82.3091 25.776C81.8237 25.524 81.4457 25.174 81.1751 24.726C80.9044 24.2687 80.7691 23.732 80.7691 23.116V21.184C80.7691 20.5587 80.9044 20.022 81.1751 19.574C81.4457 19.126 81.8237 18.7807 82.3091 18.538C82.8037 18.286 83.3777 18.16 84.0311 18.16C85.0017 18.16 85.7764 18.412 86.3551 18.916C86.9337 19.4107 87.2371 20.0873 87.2651 20.946H85.5151C85.4871 20.5447 85.3424 20.2367 85.0811 20.022C84.8291 19.798 84.4791 19.686 84.0311 19.686C83.5644 19.686 83.1957 19.8167 82.9251 20.078C82.6544 20.33 82.5191 20.694 82.5191 21.17V23.116C82.5191 23.592 82.6544 23.9607 82.9251 24.222C83.1957 24.4833 83.5644 24.614 84.0311 24.614C84.4791 24.614 84.8291 24.5067 85.0811 24.292C85.3424 24.068 85.4871 23.7553 85.5151 23.354H87.2651C87.2371 24.2127 86.9337 24.894 86.3551 25.398C85.7764 25.8927 85.0017 26.14 84.0311 26.14ZM93.2236 26C92.4863 26 91.9076 25.7947 91.4876 25.384C91.0769 24.9733 90.8716 24.4087 90.8716 23.69V19.882H88.7856V18.3H90.8716V16.13H92.6356V18.3H95.5896V19.882H92.6356V23.69C92.6356 24.1753 92.8736 24.418 93.3496 24.418H95.4496V26H93.2236ZM100.484 26.126C99.8961 26.126 99.3828 26.0327 98.9441 25.846C98.5055 25.6593 98.1601 25.4027 97.9081 25.076C97.6655 24.74 97.5348 24.348 97.5161 23.9H99.2661C99.2848 24.1427 99.4015 24.3387 99.6161 24.488C99.8401 24.6373 100.129 24.712 100.484 24.712H101.1C101.529 24.712 101.851 24.628 102.066 24.46C102.281 24.292 102.388 24.0633 102.388 23.774C102.388 23.5033 102.29 23.2933 102.094 23.144C101.907 22.9853 101.613 22.8827 101.212 22.836L100.26 22.696C99.3828 22.5747 98.7388 22.3413 98.3281 21.996C97.9175 21.6507 97.7121 21.1327 97.7121 20.442C97.7121 19.7233 97.9548 19.168 98.4401 18.776C98.9255 18.3747 99.6395 18.174 100.582 18.174H101.114C101.973 18.174 102.659 18.3653 103.172 18.748C103.685 19.1307 103.961 19.644 103.998 20.288H102.248C102.22 20.0827 102.103 19.9147 101.898 19.784C101.702 19.6533 101.441 19.588 101.114 19.588H100.582C100.181 19.588 99.8868 19.6627 99.7001 19.812C99.5228 19.952 99.4341 20.162 99.4341 20.442C99.4341 20.7033 99.5135 20.8993 99.6721 21.03C99.8308 21.1513 100.087 21.24 100.442 21.296L101.436 21.436C102.351 21.5667 103.023 21.814 103.452 22.178C103.891 22.5327 104.11 23.06 104.11 23.76C104.11 24.5067 103.853 25.09 103.34 25.51C102.836 25.9207 102.089 26.126 101.1 26.126H100.484Z" fill="#0C0712"/>
<defs>
<filter id="filter0_d_180_1301" x="13" y="39" width="621" height="370" filterUnits="userSpaceOnUse" color-interpolation-filters="sRGB">
<feFlood flood-opacity="0" result="BackgroundImageFix"/>
<feColorMatrix in="SourceAlpha" type="matrix" values="0 0 0 0 0 0 0 0 0 0 0 0 0 0 0 0 0 0 127 0" result="hardAlpha"/>
<feOffset/>
<feGaussianBlur stdDeviation="4"/>
<feComposite in2="hardAlpha" operator="out"/>
<feColorMatrix type="matrix" values="0 0 0 0 0.027451 0 0 0 0 0.0156863 0 0 0 0 0.0431373 0 0 0 1 0"/>
<feBlend mode="normal" in2="BackgroundImageFix" result="effect1_dropShadow_180_1301"/>
<feBlend mode="normal" in="SourceGraphic" in2="effect1_dropShadow_180_1301" result="shape"/>
</filter>
<filter id="filter1_d_180_1301" x="39" y="53" width="656" height="402" filterUnits="userSpaceOnUse" color-interpolation-filters="sRGB">
<feFlood flood-opacity="0" result="BackgroundImageFix"/>
<feColorMatrix in="SourceAlpha" type="matrix" values="0 0 0 0 0 0 0 0 0 0 0 0 0 0 0 0 0 0 127 0" result="hardAlpha"/>
<feOffset/>
<feGaussianBlur stdDeviation="4"/>
<feComposite in2="hardAlpha" operator="out"/>
<feColorMatrix type="matrix" values="0 0 0 0 0 0 0 0 0 0 0 0 0 0 0 0 0 0 1 0"/>
<feBlend mode="normal" in2="BackgroundImageFix" result="effect1_dropShadow_180_1301"/>
<feBlend mode="normal" in="SourceGraphic" in2="effect1_dropShadow_180_1301" result="shape"/>
</filter>
</defs>
</svg>
